<?xml version="1.0" encoding="utf-8"?>
<!-- Generator: Adobe Illustrator 22.0.0, SVG Export Plug-In . SVG Version: 6.00 Build 0)  -->
<svg version="1.1" id="Capa_1" xmlns="http://www.w3.org/2000/svg" xmlns:xlink="http://www.w3.org/1999/xlink" x="0px" y="0px"
	 viewBox="0 0 512 512" style="enable-background:new 0 0 512 512;" xml:space="preserve">
<style type="text/css">
	.st0{fill:#FFFFFF;}
</style>
<g>
	<g id="XMLID_1_">
		<g>
			<path class="st0" d="M511.7,121.6c0.8,3.4-0.2,7-2.6,9.5L450.1,190l58.9,58.9c2.5,2.5,3.5,6.1,2.6,9.5c-0.8,3.4-3.4,6.1-6.7,7.2
				l-59,18.5V442c0,4.3-2.8,8.1-6.8,9.5l-180,60c0,0-0.1,0-0.1,0c-2.2,0.7-4.4,0.6-6.4-0.1c-0.7-0.2-126.3-47.4-160.2-60.1
				c-3.9-1.5-6.5-5.2-6.5-9.4V288.2l-55.3-18.4c-2.9-1-5.2-3.2-6.2-6c-1-2.8-0.8-6,0.8-8.6l38.2-63.6L2.9,131.1
				c-2.5-2.5-3.5-6.1-2.6-9.5s3.4-6.1,6.7-7.2l166.2-51.8C188.4,25,225,0,266,0c44.1,0,82.5,28.6,95.5,70.2L505,114.4
				C508.3,115.5,510.9,118.2,511.7,121.6z M483.3,251.4l-50-50l-160.5,53.5l40,50L483.3,251.4z M433.3,178.6l49.9-49.9L365.7,92.4
				c0.2,2.5,0.3,5.1,0.3,7.6c0,18.2-5,36-14.2,51.4L433.3,178.6z M426,434.8V290.4l-113.7,35.7c-3.9,1.2-8.2-0.1-10.8-3.3L266,278.5
				v209.6L426,434.8z M256,239.5L404.4,190l-65.3-21.8C320.2,188.5,293.9,200,266,200c-30.2,0-58.7-13.7-77.6-36.9L107.6,190
				L256,239.5z M346,100c0-6.6-0.8-13.1-2.4-19.5C334.7,44.9,302.8,20,266,20c-34.2,0-64.6,21.7-75.7,54c-2.9,8.3-4.3,17.1-4.3,26
				c0,16.4,4.9,32.2,14.3,45.6c15,21.5,39.5,34.4,65.7,34.4c24.2,0,46.9-10.8,62.2-29.6C339.8,136,346,118.6,346,100z M246,487.6
				V286.1l-23.6,39.3c-1.8,3.1-5.1,4.8-8.6,4.8c-3.1,0,2.3,1.1-107.8-35.4v140.2L246,487.6z M209.4,308.3l31.6-52.7L80.4,202
				l-31.6,52.7C67.1,260.8,192.3,302.5,209.4,308.3z M78.7,178.6l98.4-32.8c-7.3-14.1-11.1-29.7-11.1-45.8c0-4.9,0.4-9.7,1.1-14.5
				L28.8,128.6L78.7,178.6z"/>
			<path class="st0" d="M323.1,62.9c3.9,3.9,3.9,10.2,0,14.1l-60,60c-3.9,3.9-10.2,3.9-14.1,0l-20-20c-3.9-3.9-3.9-10.2,0-14.1
				c3.9-3.9,10.2-3.9,14.1,0l12.9,12.9l52.9-52.9C312.8,59,319.2,59,323.1,62.9z"/>
			<path class="st0" d="M219.5,392.2c5.2,1.9,7.8,7.7,5.9,12.9c-1.9,5.2-7.7,7.8-12.9,5.9l-22.2-8.3c-5.2-1.9-7.8-7.7-5.9-12.9
				c1.9-5.2,7.7-7.8,12.9-5.9L219.5,392.2z"/>
			<path class="st0" d="M219.5,434.9c5.2,1.9,7.8,7.7,5.9,12.9c-1.5,4-5.3,6.5-9.4,6.5c-1.2,0-2.4-0.2-3.5-0.6l-60-22.5
				c-5.2-1.9-7.8-7.7-5.9-12.9c1.9-5.2,7.7-7.8,12.9-5.8L219.5,434.9z"/>
			<circle class="st0" cx="156" cy="380" r="10"/>
		</g>
		<g>
		</g>
	</g>
</g>
</svg>
