<?xml version="1.0" encoding="utf-8"?>
<!-- Generator: Adobe Illustrator 22.0.0, SVG Export Plug-In . SVG Version: 6.00 Build 0)  -->
<svg version="1.1" id="Capa_1" xmlns="http://www.w3.org/2000/svg" xmlns:xlink="http://www.w3.org/1999/xlink" x="0px" y="0px"
	 viewBox="0 0 348.1 348.1" style="enable-background:new 0 0 348.1 348.1;" xml:space="preserve">
<style type="text/css">
	.st0{fill:#FFFFFF;}
</style>
<g>
	<g id="XMLID_1_">
		<g>
			<path class="st0" d="M340.3,275.1c10.7,10.7,10.4,28.5-0.7,39.5l-15.4,15l-0.3-0.3c-6.5,5.1-14,9.3-21.9,12.4
				c-7.4,2.9-14.8,4.7-22.4,5.6c-3.5,0.4-84.8,8-185.7-92.9C20.9,181.6-6,127.8,1.1,68.9c0.8-7.3,2.6-14.7,5.6-22.3
				c3.2-8.1,7.4-15.5,12.5-22l-0.4-0.4L33.9,8.9C45-2.2,62.7-2.5,73.4,8.2L127.2,62c10.7,10.7,10.4,28.4-0.7,39.5l-8.9,8.9
				l-18.2,18.2c1,1.7,1.9,3.4,2.9,5.2c9.5,17.1,22.5,40.6,47.2,65.3c24.6,24.7,48,37.6,65.1,47.1c1.9,1,3.6,2,5.3,3l27.1-27.1
				c11.1-11.1,28.8-11.4,39.5-0.8L340.3,275.1z"/>
		</g>
		<g>
		</g>
	</g>
</g>
</svg>
