<?xml version="1.0" encoding="utf-8"?>
<!-- Generator: Adobe Illustrator 22.0.0, SVG Export Plug-In . SVG Version: 6.00 Build 0)  -->
<svg version="1.1" id="Layer_1" xmlns="http://www.w3.org/2000/svg" xmlns:xlink="http://www.w3.org/1999/xlink" x="0px" y="0px"
	 viewBox="0 0 512 512" style="enable-background:new 0 0 512 512;" xml:space="preserve">
<style type="text/css">
	.st0{fill:#FFFFFF;}
</style>
<g>
	<g id="XMLID_1_">
		<g>
			<path class="st0" d="M423.2,167.2c0,33.9-10,67.2-29,96.2c-24.4,37.4-40.7,64.9-44.4,103.4c-0.9,9.5-6.6,17.5-14.6,21.5v70.4
				c0,9.3-5.9,17.3-14.1,20.4c-0.7,18.3-15.9,33-34.3,33h-61.6c-18.5,0-33.6-14.7-34.3-33c-8.2-3.1-14.1-11.1-14.1-20.4v-70.4
				c-8-4-13.7-11.9-14.6-21.5c-3.6-38.5-19.9-65.9-44.3-103.4c-18.9-29-29-62.3-29-96.2C88.8,75,163.8,0,256,0
				c42.5,0,83.1,16,114.1,45c3,2.8,3.2,7.6,0.4,10.6c-2.8,3-7.6,3.2-10.6,0.4C331.6,29.5,294.7,15,256,15
				c-83.9,0-152.2,68.3-152.2,152.2c0,31,9.2,61.5,26.5,88c25.7,39.3,42.8,68.2,46.7,110.2c0.5,5,3.9,9,8.5,10.3
				c0.3,0,0.6,0.1,0.9,0.2c0.8,0.1,1.5,0.2,2.3,0.2h134.6c0.8,0,1.5-0.1,2.3-0.2c0.3-0.1,0.6-0.2,0.9-0.2c4.6-1.3,8-5.3,8.5-10.3
				c4-41.9,21.1-70.8,46.7-110.2c17.3-26.6,26.5-57,26.5-88c0-32.3-10-63.2-28.9-89.2c-2.4-3.3-1.7-8,1.7-10.5
				c3.4-2.4,8-1.7,10.5,1.7C412.2,97.8,423.2,131.7,423.2,167.2z M320.3,458.6v-9.8H191.7v9.8c0,3.6,2.9,6.6,6.4,6.8
				c0.1,0,0.2,0,0.2,0c0.1,0,0.2,0,0.3,0h114.5c0.1,0,0.2,0,0.3,0c0,0,0.1,0,0.1,0c0,0,0.1,0,0.1,0
				C317.4,465.2,320.3,462.3,320.3,458.6z M320.3,433.9v-13.7h-81.5c-4.2,0-7.5-3.4-7.5-7.5c0-4.1,3.3-7.5,7.5-7.5h81.5V391H191.7
				v14.1h17c4.1,0,7.5,3.4,7.5,7.5c0,4.1-3.4,7.5-7.5,7.5h-17v13.7H320.3z M306,480.4H206c1.4,9.4,9.4,16.6,19.2,16.6h61.6
				C296.5,497,304.6,489.8,306,480.4z"/>
			<path class="st0" d="M363.8,180.4v11.1c0,9.5-7.7,17.3-17.3,17.3h-6.1c-1,0-1.9,0.6-2.1,1.6c-1.6,5.8-3.9,11.4-6.8,16.8
				c-0.4,0.8-0.3,1.9,0.4,2.6l4.2,4.2c3.3,3.3,5,7.6,5,12.2s-1.8,8.9-5,12.2l-7.9,7.9c-3.3,3.3-7.6,5.1-12.2,5.1
				c-4.6,0-8.9-1.8-12.2-5.1l-3.7-3.7c-0.7-0.7-1.8-0.9-2.6-0.4c-5.4,3.1-11.2,5.5-17.2,7.3c-0.9,0.3-1.5,1.2-1.5,2.2v5
				c0,9.5-7.7,17.3-17.3,17.3h-11.1c-9.5,0-17.3-7.7-17.3-17.3v-4.6c0-1-0.6-1.9-1.6-2.1c-6.1-1.8-12.1-4.2-17.7-7.3
				c-0.8-0.4-1.9-0.3-2.6,0.4l-3.2,3.2c-3.3,3.3-7.6,5.1-12.2,5.1c-4.6,0-8.9-1.8-12.2-5.1l-7.9-7.9c-3.3-3.3-5.1-7.6-5.1-12.2
				s1.8-8.9,5.1-12.2l3.2-3.2c0.7-0.7,0.9-1.8,0.4-2.6c-3.1-5.6-5.5-11.6-7.3-17.7c-0.3-0.9-1.2-1.5-2.2-1.5h-4.6
				c-9.5,0-17.3-7.7-17.3-17.3v-11.1c0-9.5,7.7-17.3,17.3-17.3h5c1,0,1.9-0.6,2.2-1.5c1.8-6,4.3-11.7,7.3-17.2
				c0.5-0.8,0.3-1.9-0.4-2.6l-3.7-3.7c-3.3-3.3-5.1-7.6-5.1-12.2s1.8-8.9,5.1-12.2l7.9-7.9c3.3-3.3,7.6-5.1,12.2-5.1
				c4.6,0,8.9,1.8,12.2,5.1l4.1,4.2c0.7,0.7,1.8,0.9,2.6,0.4c5.3-2.8,11-5.1,16.8-6.8c0.9-0.3,1.6-1.1,1.6-2.1v-6.1
				c0-9.5,7.7-17.3,17.3-17.3h11.1c9.5,0,17.3,7.7,17.3,17.3v6.5c0,1,0.6,1.9,1.5,2.1c5.6,1.7,11.1,4,16.3,6.8
				c0.9,0.5,1.9,0.3,2.6-0.4l4.6-4.7c3.3-3.3,7.6-5.1,12.2-5.1c4.6,0,8.9,1.8,12.2,5.1l7.9,7.9c3.3,3.3,5,7.6,5,12.2
				s-1.8,8.9-5,12.2l-4.7,4.7c-0.7,0.7-0.9,1.8-0.4,2.6c2.8,5.2,5.1,10.6,6.8,16.3c0.3,0.9,1.1,1.5,2.1,1.5h6.5
				C356.1,163.1,363.8,170.9,363.8,180.4z M348.8,191.5v-11.1c0-1.2-1-2.3-2.3-2.3h-6.5c-7.6,0-14.3-4.9-16.5-12.2
				c-1.4-4.6-3.3-9.2-5.6-13.4c-3.6-6.7-2.4-15.1,3-20.4l4.7-4.7c0.9-0.9,0.9-2.3,0-3.2l-7.9-7.9c-0.9-0.9-2.3-0.9-3.2,0l-4.7,4.7
				c-5.4,5.4-13.8,6.6-20.4,3c-4.3-2.3-8.8-4.2-13.4-5.6c-7.3-2.2-12.2-8.8-12.2-16.5v-6.5c0-1.2-1-2.3-2.3-2.3h-11.1
				c-1.2,0-2.3,1-2.3,2.3v6.1c0,7.7-5.1,14.5-12.5,16.6c-4.8,1.4-9.4,3.2-13.9,5.6c-6.7,3.6-14.8,2.3-20.2-3.1l-4.1-4.1
				c-0.9-0.9-2.3-0.9-3.2,0l-7.9,7.9c-0.9,0.9-0.9,2.3,0,3.2l3.7,3.7c5.4,5.5,6.6,13.9,2.9,20.6c-2.5,4.5-4.6,9.3-6.1,14.2
				c-2.2,7.2-9,12.2-16.5,12.2h-5c-1.2,0-2.3,1-2.3,2.3v11.1c0,1.2,1,2.3,2.3,2.3h4.6c7.7,0,14.5,5.1,16.6,12.4
				c1.4,5.1,3.5,10,6,14.6c3.6,6.6,2.4,15-3,20.4l-3.2,3.2c-0.9,0.9-0.9,2.3,0,3.2l7.9,7.9c0.6,0.6,1.2,0.7,1.6,0.7
				c0.4,0,1.1-0.1,1.6-0.7l3.2-3.2c3.3-3.3,7.8-5.1,12.3-5.1c2.8,0,5.6,0.7,8.2,2.1c4.6,2.5,9.6,4.6,14.6,6
				c7.3,2.1,12.4,8.9,12.4,16.6v4.6c0,1.3,1,2.3,2.3,2.3h11.1c1.2,0,2.3-1,2.3-2.3v-5c0-7.6,5-14.4,12.2-16.5
				c4.9-1.5,9.7-3.5,14.2-6.1c6.7-3.8,15.2-2.6,20.6,2.9l3.7,3.7c0.9,0.9,2.3,0.9,3.2,0l7.9-7.9c0.9-0.9,0.9-2.3,0-3.2l-4.1-4.2
				c-5.4-5.4-6.6-13.5-3.1-20.2c2.3-4.4,4.2-9.1,5.6-13.8c2.1-7.3,8.9-12.5,16.6-12.5h6.1C347.8,193.7,348.8,192.7,348.8,191.5z"/>
			<path class="st0" d="M256,131.2c30.2,0,54.7,24.5,54.7,54.7c0,30.2-24.5,54.7-54.7,54.7s-54.7-24.5-54.7-54.7
				C201.3,155.8,225.8,131.2,256,131.2z M295.7,185.9c0-21.9-17.8-39.7-39.7-39.7s-39.7,17.8-39.7,39.7c0,21.9,17.8,39.7,39.7,39.7
				S295.7,207.8,295.7,185.9z"/>
		</g>
		<g>
		</g>
	</g>
</g>
</svg>
