<?xml version="1.0" encoding="utf-8"?>
<!-- Generator: Adobe Illustrator 22.0.0, SVG Export Plug-In . SVG Version: 6.00 Build 0)  -->
<svg version="1.1" id="Layer_1" xmlns="http://www.w3.org/2000/svg" xmlns:xlink="http://www.w3.org/1999/xlink" x="0px" y="0px"
	 viewBox="0 0 80 80" style="enable-background:new 0 0 80 80;" xml:space="preserve">
<style type="text/css">
	.st0{fill:#1034A6;}
</style>
<path class="st0" d="M65.7,0H14.3c-0.8,0-1.4,0.6-1.4,1.4v77.2c0,0.8,0.6,1.4,1.4,1.4h51.4c0.8,0,1.4-0.6,1.4-1.4V1.4
	C67.1,0.6,66.5,0,65.7,0z M15.7,3.5l22.9,8.4v56.2l-22.9,8.4V3.5z M64.3,77.2h-42l18.2-6.7c0.6-0.2,0.9-0.7,0.9-1.3V10.9
	c0-0.6-0.4-1.1-0.9-1.3L22.3,2.8h42V77.2z"/>
<path class="st0" d="M34,35.1c-2,0-3.6,2.2-3.6,4.9c0,2.8,1.6,4.9,3.6,4.9c2,0,3.6-2.2,3.6-4.9C37.6,37.2,36,35.1,34,35.1z M34,42.1
	c-0.2,0-0.8-0.8-0.8-2.1c0-1.3,0.6-2,0.8-2.1c0.2,0,0.8,0.8,0.8,2.1C34.7,41.3,34.1,42,34,42.1z"/>
</svg>
