<?xml version="1.0" encoding="utf-8"?>
<!-- Generator: Adobe Illustrator 22.0.0, SVG Export Plug-In . SVG Version: 6.00 Build 0)  -->
<svg version="1.1" id="Capa_1" xmlns="http://www.w3.org/2000/svg" xmlns:xlink="http://www.w3.org/1999/xlink" x="0px" y="0px"
	 viewBox="0 0 550.8 550.8" style="enable-background:new 0 0 550.8 550.8;" xml:space="preserve">
<style type="text/css">
	.st0{fill:#FFFFFF;}
</style>
<g>
	<g id="XMLID_1_">
		<g>
			<path class="st0" d="M550.8,198.6V436L413.3,298.5c29.3-20.5,64.9-44.9,106.8-73.2C531.7,217.3,542,208.4,550.8,198.6z"/>
			<path class="st0" d="M536.2,73.5c9.7,9.6,14.6,21.2,14.6,34.7c0,16.2-5,31.7-15.1,46.4c-10,14.8-22.5,27.4-37.5,37.8
				c-49.7,34.5-87.3,60.6-112.7,78.3c-14,9.7-24.4,17-31.1,21.6c-1,0.7-2.5,1.8-4.6,3.3c-2.2,1.6-5,3.6-8.5,6.1
				c-6.7,4.8-12.2,8.7-16.6,11.7c-4.4,3-9.7,6.3-16,10s-12.1,6.4-17.7,8.3c-5.5,1.8-10.7,2.8-15.4,2.8h-0.3h-0.3
				c-4.7,0-9.8-0.9-15.4-2.8c-5.5-1.9-11.4-4.6-17.7-8.3c-6.3-3.7-11.6-7-16-10c-4.4-3-9.9-6.9-16.6-11.7c-3.5-2.5-6.3-4.5-8.5-6.1
				c-2.1-1.5-3.6-2.6-4.6-3.3c-8.6-6-19-13.3-31-21.7c-14.1-9.9-30.6-21.3-49.5-34.4c-35-24.3-56-38.9-63-43.8
				c-12.7-8.6-24.7-20.4-36-35.5C5.6,141.8,0,127.9,0,114.9c0-16,4.2-29.3,12.8-40c8.5-10.7,20.6-16,36.4-16h452.4
				C514.9,59,526.5,63.8,536.2,73.5z"/>
			<path class="st0" d="M377.8,323.6l156.1,156c-9.1,8.1-19.9,12.2-32.2,12.2H49.2c-12.4,0-23.1-4.1-32.2-12.2L173,323.5
				c3.9,2.8,7.5,5.4,10.8,7.8c11.7,8.6,21.1,15.3,28.4,20.1c7.3,4.8,16.9,9.7,29.1,14.8c12.1,5,23.4,7.5,33.8,7.5h0.3h0.3
				c10.4,0,21.7-2.5,33.8-7.5s21.8-9.9,29-14.8c7.3-4.8,16.8-11.5,28.4-20.1C370.4,328.9,374,326.3,377.8,323.6z"/>
			<path class="st0" d="M137.5,298.4L0,436V198.6c9,10.1,19.4,19,31,26.8C74.6,254.9,110,279.2,137.5,298.4z"/>
		</g>
		<g>
		</g>
	</g>
</g>
</svg>
