<?xml version="1.0" encoding="utf-8"?>
<!-- Generator: Adobe Illustrator 22.0.0, SVG Export Plug-In . SVG Version: 6.00 Build 0)  -->
<svg version="1.1" id="Layer_1" xmlns="http://www.w3.org/2000/svg" xmlns:xlink="http://www.w3.org/1999/xlink" x="0px" y="0px"
	 viewBox="0 0 80 81" style="enable-background:new 0 0 80 81;" xml:space="preserve">
<style type="text/css">
	.st0{fill:#1034A6;}
</style>
<g id="XMLID_1_">
	<g>
		<path class="st0" d="M80,6.2v69.6c0,2.9-2.3,5.2-5.2,5.2H5.2C2.3,81,0,78.7,0,75.8V6.2C0,3.3,2.3,1,5.2,1h69.6
			C77.7,1,80,3.3,80,6.2z M76.5,75.8V6.2c0-1-0.8-1.7-1.7-1.7H5.2c-1,0-1.7,0.8-1.7,1.7v69.6c0,1,0.8,1.7,1.7,1.7h69.6
			C75.7,77.5,76.5,76.7,76.5,75.8z"/>
		<path class="st0" d="M59.1,16.6V34c0,10-7.7,18.2-17.4,19v10.5h8.7c1,0,1.7,0.8,1.7,1.7s-0.8,1.7-1.7,1.7H29.6
			c-1,0-1.7-0.8-1.7-1.7s0.8-1.7,1.7-1.7h8.7V53.1c-9.7-0.9-17.4-9.1-17.4-19V16.6c0-1,0.8-1.7,1.7-1.7h34.8
			C58.3,14.9,59.1,15.7,59.1,16.6z M55.7,34V18.4H40.9l-4.6,7H47c0.6,0,1.2,0.4,1.5,0.9c0.3,0.6,0.3,1.3-0.1,1.8l-7,10.4
			c-0.3,0.5-0.9,0.8-1.5,0.8c-0.3,0-0.7-0.1-1-0.3c-0.8-0.5-1-1.6-0.5-2.4l5.2-7.7H33c-0.6,0-1.2-0.4-1.5-0.9
			c-0.3-0.6-0.3-1.3,0.1-1.8l5.1-7.7H24.4V34c0,8.6,7,15.7,15.6,15.7S55.7,42.7,55.7,34z"/>
	</g>
	<g>
	</g>
</g>
</svg>
