<?xml version="1.0" encoding="utf-8"?>
<!-- Generator: Adobe Illustrator 22.0.0, SVG Export Plug-In . SVG Version: 6.00 Build 0)  -->
<svg version="1.1" id="Layer_1" xmlns="http://www.w3.org/2000/svg" xmlns:xlink="http://www.w3.org/1999/xlink" x="0px" y="0px"
	 viewBox="0 0 3553.4 1587.4" style="enable-background:new 0 0 3553.4 1587.4;" xml:space="preserve">
<style type="text/css">
	.st0{fill:#FDD9B6;}
	.st1{fill:#2E3191;}
	.st2{fill:#262837;}
	.st3{fill:#5D5D61;}
	.st4{fill:#899499;}
	.st5{fill:#FFFFFF;}
	.st6{fill:#D7E8EF;}
	.st7{fill:#784D08;}
	.st8{fill:#D81B39;}
	.st9{fill:#272767;}
	.st10{fill:#A11C33;}
	.st11{fill:#C7C8C9;}
</style>
<path d="M517.6,588.2c17.3,3.8,34.6,6,52.3,5c12-0.7,23.6-3,35.5-4.1c3.6-0.3,7.2-0.5,10.8-0.5c2.9,0,5.3,1.2,7,3.5
	c10.2,13.2,19.8,27.2,29.7,40.6c5.1,6.9,10.2,13.8,15.6,20.5c4.4,5.5,9,11.1,14,16c1.8,1.8,2.6,3.9,2.6,6.4s-0.9,4.6-2.7,6.4
	c-10.2,10.1-15.2,18.9-16.3,33.2c-0.5,6.6-0.4,13.1-0.9,19.7c-0.8,8.7-2.6,16.8-5.9,24.9c-1.8,4.4-6.7,6.6-11.2,5.1
	c-40.7-13.7-75.9-41.1-101.9-74.9c-19.1-24.9-37.9-60.4-39.5-92.4c-0.1-2.9,1-5.4,3.2-7.3C512.1,588.3,514.8,587.6,517.6,588.2"/>
<path class="st0" d="M651,756.3c13.2-31.8-5.2-50.8,25.1-80.7c-18.4-18.5-44.8-58.5-60-78c-26-0.1-46.3,11.3-100.5-0.6
	C518,645.5,568.6,728.4,651,756.3"/>
<path class="st1" d="M375,1464.4l-27.1-16.1l-4.4,23.2 M449.6,1362.4c-2.4-16,73.2-376.4,75.9-397.3c-23.5-4.7-18,1.9-43.3,2.3
	c-16.8,0.3-50.3,14.1-57.9,26.1l-42.7,293.3c-6.4,11.2-5.9,10.8-8.6,33.9c-1.9,15.8-24.4,107.5-21.5,114.4
	c7.7,18.2,55.3,24.5,72.6,22.3l19.9-9.7c-8.5-4.5-2.2,3-2.9-6.7c-0.5-6.5,0.3-5.7,1.8-11.5C436.7,1404.8,447,1386.1,449.6,1362.4z"
	/>
<path class="st1" d="M329.4,1460.5c2.1-14.3,0.4-38,1.3-54c0.8-14.9,107.1-409.8,106.7-422.2l-100.1-63.6
	c-21.8,3.2-70.7,366.3-76.8,386l-1.8,4.6c-10.9,29-4.4,32.8-11.2,65.2c-5.8,27.6-5.7,0.4-10.7,51.8c-4.4,45.2-1.7,22.3,7.1,48
	c17.1-3.5,29.5,1,49.3,3.7C319.4,1483.5,324.5,1481.2,329.4,1460.5"/>
<path class="st2" d="M329.4,1460.5c-4.9,20.7-10,23-36.1,19.5c-19.9-2.7-32.3-7.2-49.3-3.7c-8.8-25.7-11.6-2.9-7.1-48
	c5-51.4,4.9-24.2,10.7-51.8c6.9-32.4,62.1-370.9,72.9-399.9l1.8-4.6c6.1-19.8-1.1-20.4,20.7-23.6l82.8-6.2
	c0.4,12.4-94.3,449.3-95.1,464.3C329.9,1422.5,331.5,1446.2,329.4,1460.5 M336.8,1450.8c-5.8-38.6,66.8-351,73.3-383.2
	C404.7,1098.9,352.7,1425.7,336.8,1450.8z M343.5,1471.5l4.4-23.2l27.1,16.1L343.5,1471.5z M591.8,1492c-17.4,1-34.3,11.1-53.8,14.3
	c-22.4,3.7-43.7,5-66.2,8c-8.8-25.1-30.6-32.3-51.3-44.3C499.6,1417.6,579.7,1450.1,591.8,1492z M544.6,934.1L544.6,934.1
	c-1.6,5.4-3.3,11.1-5,17.1l-0.2,0.8c-13,44-93.2,436.7-96.5,477.5c-6.1-24.7,4.2-43.4,6.8-67.1c-2.4-16,80.7-405.2,83.3-426.1
	c-23.5-4.7-18,1.9-43.3,2.3c-16.8,0.3-35.4-3.7-43.1,8.3l-3.3,5.1c-6.4,11.2-5.9,10.8-8.6,33.9c-1.9,15.8-86.1,442.2-83.2,449.1
	c7.7,18.2,55.3,24.5,72.6,22.3l19.9-9.7c31.9-16.8,74.8-21.4,109.7-5.5c26.2,11.9,55.2,43,55.4,79.6c-34.3,20.1-81.3,36.5-132,22.3
	c-4.7-5.2-0.8,4-6.2-9.5c-6.1-15.3,3.5-9.2-7.1-24.1c-19.6-27.5-55.6-39.8-89.8-37.3c-58.2,4.2-89.5,52-105.9,62.5
	c3.2-6.3,12-20.1,16.8-25.1l23-21c0.4-1.4,1.5-1.4,2.1-2.2c-45.6-2-10.3,7.9-64.7-7.9l-1-3c-12.3,1.2-4.4-7.1-9.6,8.9l-12.8,44.4
	l7.7,0.2c10.5,9.5,41.8,14.9,55.2,17.2c72.2,12.5,112.8,6.8,179.6-17.4c-10.3,10.3-12.7,11-26.8,16.4c-58.1,22.2-153.4,20.1-201.9-7
	c-18.7-10.5-18.7-20-21,8.3c-7.6-20.1,4.7-45.6,12.3-63.4c7.4-17.3,2.6-42.8,4.2-65.1c3-41.2,72.6-408.5,80.4-445l8.4-32l15.1-1.1
	l212.9-17L544.6,934.1z M591.8,1492c8,8.7,10.1,13.4,14.3,26.1c-48.1,15.9-68.9,24.7-127.7,21.4l-4.7-21.1
	C500.2,1521.3,583.5,1517.4,591.8,1492z"/>
<path class="st3" d="M245.1,1479.3c-4.8,7.2-13.5,40-15.8,50.5c10.5,9.5,41.8,14.9,55.2,17.2c72.2,12.5,112.8,6.8,179.6-17.4
	c-10.3,10.3-12.7,11-26.8,16.4c-58.1,22.2-153.4,20.1-201.9-7c-18.7-10.5-18.7-20-21,8.3c40.2,12.4,72.2,24.9,117.8,29.3
	c21.5,2.1,46.8,2.6,69.9,0.7c35.7-2.8,50.5-15.9,57.7-11.4c12.6-6.8,10.3-7.1,17.2-22c-4.7-5.2-0.8,4-6.2-9.5
	c-6.1-15.3,3.5-9.2-7.1-24.1c-19.6-27.5-55.6-39.8-89.8-37.3c-58.2,4.2-89.5,52-105.9,62.5c3.2-6.3,12-20.1,16.8-25.1l23-21
	c0.4-1.4,1.5-1.4,2.1-2.2C264.2,1485.3,299.5,1495.2,245.1,1479.3"/>
<path class="st3" d="M591.8,1492c-12.1-41.9-92.2-74.4-171.3-22c20.7,11.9,42.6,19.1,51.3,44.3c22.5-2.9,43.8-4.3,66.2-8
	C557.5,1503.1,574.4,1493,591.8,1492"/>
<path class="st3" d="M591.8,1492c-8.4,25.4-91.6,29.4-118.1,26.4l4.7,21.1c58.8,3.4,79.7-5.5,127.7-21.4
	C602,1505.4,599.8,1500.7,591.8,1492"/>
<path class="st2" d="M441.5,1569.1c-9.1,3.1-21.6,7-39.4,8.4c-23.1,1.8-48.4,1.3-69.9-0.7c-45.6-4.4-77.7-16.9-117.8-29.3
	c55,39.3,167.1,53,237.3,22.5l0,0c0,0,15.8-4.6,19.4-12.6s6.8-14.7,6.8-14.7l-3.1-4.3c0,0-7.4,13.8-9.9,17.4
	C462.3,1559.1,441.5,1569.1,441.5,1569.1"/>
<path class="st4" d="M229.3,1529.9c2.3-10.5,11-43.3,15.8-50.5l-1-3c-12.3,1.2-4.4-7.1-9.6,8.9l-12.8,44.4"/>
<path d="M294.2,498.2c41.3,2,69.4,0.9,100.5-17.7c0.5,0.7,21.3,46,22.6,49.4c-20.2,11.6-32.4-3.6-49.6-10.9
	c-22.9-9.7-36.1,0.5-61.6,1.1C306,520,296.4,502.2,294.2,498.2 M273.4,533.1c23.5-2.4,33.6,0,57.8-5.5c12.7,2.6,6.1,1,11.2,5.5
	l-4.7,44.8c-10.1-0.8-10.5,1-19.9-2.1c-26.4-8.9-31.8-6-65.1-6.2c2.9-8.4,5.1-15.9,8.5-24.6C265.6,533.9,266.5,531.3,273.4,533.1z
	 M426.2,559.6c-15.9-2.3-13.5-10.7-15.5-16.3c5.8-3.5,7.9-3.4,15.9-3.6C429.2,547.2,431.5,551.1,426.2,559.6z M131.5,671.9
	c6.7-10.8-5.1-6.1,6.9-8c9-1.5-3.1,7,11.4-0.7c2,22.3,4.4,33.3,15.4,51.5c10.8,17.8,18.6,24.2,29.3,37.5c8.7,10.9,3.8,0.9,7.4,11.9
	c-18.5,24.3-32,26.3-53.5,2.3c-39.1-43.7-30.1-63.3-38.1-93.6L131.5,671.9z M204.7,61.4c-6.4-18.8-23.3-33.2-39.9-42.9
	c29.6-7.4,65-5.6,90.6,5.4c20.9,8.9,45.7,30.2,56,46.7l-8.5,4.2c-13.8-8.8-4.7-19-25.4-26c2,13.5,7.1,17.9,12.8,28.6
	c-16.7,12.4-50.7,24.7-71.8,39c-12.1,8.2-21.9,16.2-32.5,24.4c-5.9,4.6-10.2,8.1-14.8,13.7c-6.1,7.4-6.7,8.6-8.7,16.9
	c-16.6-10.9-27.4-40.7-65.8-43.9l12.9,10.4c6.1,3.9,9.1,5.7,13.4,8.3c-2.5,2.6-2.1,2.4-5.4,5.2c-9.8,8.2,9.5-7.1-3.7,2.9
	C61.5,193.8,58.1,273.4,65.3,334c-22.4-24-46-71.9-52.5-114.9C2.9,154.4,21.7,129.8,43.1,87c-10,5.8-17,16.1-23.7,27.4
	C16.5,97.2,22.3,91,34.8,85c30.1-14.4,11.5-4,14.4-16.8C118.4,38.7,152.7,60.3,204.7,61.4z M97.8,43.4
	c31.6-41.6,72.9-13.3,96.4,10.5C157.4,44.8,139.3,42.8,97.8,43.4z M381.5,87.6h-1.3c-9.9,0-17.9-6.3-17.9-14c0-3-0.6-6.1-0.8-8.6
	c-12.3,2.9-25,5.5-34.1,13.4c-19.4-0.1-79.7,31.2-95.9,41.3c-33.1,20.6-55.9,36.5-76.3,63.9c56.6,0.9,151.1-51,191.9-73
	c12.6-6.3,19.1-12,29.6-19.6C378.5,89.8,380.1,88.7,381.5,87.6z M429,229.2c-4.6-2.9-18.8-10-29.7-17.6
	c-16.5-27.4-16.7-51.5-46.1-91.8c-11,4.3-27.6,13.3-35.6,22.1c15.2,4.1,10.7-0.1,13.8,11.3c-8.7,3.5-26-7.5-44.3,0
	c-52.1,21.2-72.6,32-135.8,35.6c-10.1,16.8-21.5,31.5-31.5,49.9c6.5,9.5,16.5,19.2,21.6,34.9c5,15.2,7.6,32.7,5.5,49.8
	c-6.8,54.1-36.2,23.3-73.3,40.5c-51.1,23.6,10.2,110.6,63.4,60.2l15.4-15.5c2.8,3.1,1.3,5.3,1.8,7.2c17.5,6.5,53.2,49.5,116.3,67.2
	C421,525.3,521.8,347.8,466,265.4c-14.8-21.9-28.8-30.7-36-35.5l0,0L429,229.2z M403.1,208.1c0.2,0.1,6,4.5,9.8,5.1s18.9,10,18.9,10
	c37.8,20.3,63.9,68.2,58.3,116.8c-7,60.8-44.8,89.6-66.6,120.4c25.6,10.1,27,13.5,40.5,30.4c98.9-26.7,127.6,95.8,162.3,100.2
	c7.3,0.9,15.6-4.2,24.7-3.1l-8.4,5.4c-3,0.7-6.4,2.6-10.5,6.1c-0.9,0.7-1.7,1.5-2.5,2.2l-23.1,14.7v-0.5c-0.7,0.6-1.5,1.2-2.1,1.8
	l0.3-0.4l-27.4,21.5l-5.1,50.7l-0.4-46.2l-0.6-11.7c8.1-17.9-2.1,4.6,18.5-14.2c5.3-4.8,5.1-4.7,11.1-8.1c3.3-1.9,3.2-1.4,6.2-3.3
	c11.2-7,10.4-4.6,6.6-12.2c-5-10-11.8,3.2-20.1-17.9c-1.5-3.8,1.8-1.2-2.2-5.8l-27.1-0.8c-1.1,24.3,9.9,27.8,10.6,40.4
	c1.3,20.5,4.3,9.8-6.8,13.2c-5.1-30.2-20.9-62.6-36.1-79.5c8.1,3.2,10.6,8.2,17.6,15c0.5,0.5,1.2,1.2,1.8,1.7l3.8,3.4
	c0.5,0.4,1.3,1.2,2,1.7l8.7-8c19.5-2.7,4,0.6,9-5.3c-8.6-7.1-12-13.8-18.9-22.2c-16-19.5-44.4-39.8-72.5-38
	c-17.3,1.1-15.7,6.3-15.8,6.4l6.8,9.9l3.5,21.9l-47.4-17.5c-1.9-9-0.4-1.2,2.2-4.9l31.4,7.8c7.9-8-4.9-17.1-8.2-20.3l-12.5-12.5
	c-8.8-12.8-27.1-12-38.5-8.5c3.8,18.3,3.4,32.2,14.7,31.7l4-0.4c0.5,0,1.7-0.2,2.6-0.1l2.4,12.6l5.3,11.8l2.7,48.2
	c-11.7-3.2-4.4,0.2-13.3-6.8l-11.7-8.1l-11.8-12.4c-10.7-8-37-26.2-46.9-28.5l-6.7,74.6l-10.5,0.1c-3.8-7.3-3.4-6.8-12.5-9.1
	c-23.3-22.5-73.5-6.9-99.2,5.9c-15.6,7.7-25.4,14.9-38.1,25.4c-27.7,22.8-47.5,21.7-12.5,91.3c9.2,18.4,25.2,39,40.9,45l1.8-5.7
	c23.2-7,33.2-29.1,73.9-29.5c-3.5-53.3-8.9-58.3-26.7-99.8c12.3,3.4,22.8,25.2,27.8,39c11.1,30.5,2,35.5-1.8,64.7
	c-30.5,1.9-32.7,17.2-49,25.9c-39.3,8.3-39,63-96.3,26.6c-20.4-11.7-33.5-48.5-44.7-78.1l0.6-25.6c10.4-8.2,23.8-14.1,34.7-22.8
	c32.3-25.7,58.8-60.5,102.9-64.6c3.6-15.4,10.2-29,17.7-42.7c11.4-21,10.8-19.8,40.3-20c-10.4-28-16.2-27.3-29.2-31.4
	c-17.2-5.4-29.8-11.3-44.2-19.1c-11.7-6.3-54.9-35.7-63.5-47.3c-3.9-5.3-2.3-2-4.3-8.4c-11.2,3.7-1.6-2.4-10.3,8.8
	c-58.5,75.3-147.9-46.5-69.5-70c-29.9-28.6-61.9-73-71.5-132.6c-6.6-41-0.5-56.6,9.4-90.9c5.8-20.1-10.1-17.6-1.3-38.7
	c6.1-14.6,20.8-14,29.6-21.2c11.8-9.7,7.8-14.2,29.4-21.4C95.4,41.9,84.9,46,100.2,30c22.9-23.9,33.9-10.3,79.6-22.2
	c60-15.6,123.9,21.8,135.5,62l48.4-10c1-0.6,2.5-0.9,4.6-0.9l1.2-0.3l0.4,0.1c6.1-0.8,26.5-3.8,27.8-3.5c6,1.2,3.1,13.6,0,21.7
	c-0.6,1.8-1.4,3.6-2.4,5.3L395,82c-0.9,1.6-1.7,2.7-2.4,3.5c-8.9,11.6-25.5,21-32.8,29.7c11.1,14.4,18.9,22.9,27.7,45.2
	C396.7,183.8,397.8,200.5,403.1,208.1z M84.4,345.2c6.6-8.6,4.2-74.8,31.7-99.6c14.9,9.8,16.9,26.5,21.3,48.6
	c5.8,29.4,1.1,37.5-7.1,60.4L85,352.7c-8.3-1.4-4.1,0.6-9.6-3.2C61.8,275,79.8,179.1,128,151.3c11.7,8.1,13.2,13.4,27.3,20.4
	l-27.8,37.2C98.9,246.4,75,294,84.4,345.2z"/>
<path class="st0" d="M154.1,415.9c17.5,6.5,53.2,49.5,116.3,67.2C421,525.3,521.8,347.8,466,265.4c-18.6-27.5-35.9-34.3-40.2-38.6
	c-14.9-15-18.9-8.1-26.3-14.7c-16.7-27.6-16.8-51.7-46.4-92.2c-11,4.3-27.6,13.3-35.6,22.1c15.2,4.1,10.7-0.1,13.8,11.3
	c-8.7,3.5-26-7.5-44.3,0c-52.1,21.2-72.6,32-135.8,35.6c-10.1,16.8-21.5,31.5-31.5,49.9c6.5,9.5,16.5,19.2,21.6,34.9
	c5,15.2,7.6,32.7,5.5,49.8c-6.8,54.1-36.2,23.3-73.3,40.5c-51.1,23.6,10.2,110.6,63.4,60.2l15.4-15.5
	C155.2,411.7,153.7,414,154.1,415.9 M166.9,228.6c-14.9-16.8,3.5-32.8,20-34.9c-6.2,10.6-8.4,8.2-13.2,17
	C170.4,216.5,169.3,223.4,166.9,228.6z M324.2,167.5c8.3,2.3,11.7,5.6,17.9,10.1c6.9,5,8.3,6.6,12.6,15.7c8.7,18.5,7.7,22,5.9,42.2
	c15.9,3.4,25,9.2,30.1,23.3c17.2,47.9-48.1,74.9-84.7,56.9c35.8-2.3,80.8-5,76.9-45.3c-1.6-16.7-15.2-29.8-35.1-25.5
	c-12,2.6-26.4,17-36.1,21.9l12.6-17.7C274.6,228.9,279,152.3,324.2,167.5z M256.5,306.3c-3.7,4.4-0.5,4.9-16,7.2
	c-5.1,0.7-9.2,0.6-15.8,2.2c-8.8,2.1-18.3,5.7-26.5,7.9c3.8-12.6,2.2-4.4,11.4-13.8c-12.1-10.9-24.5-16.7-28-39.4
	c-3.5-23,4.9-36,16.9-47.4c35.1-33.3,79.8,11.3,76,20.8c6.8,16.7,12.1,23.3,9.3,39C281.7,294.7,270.9,308.1,256.5,306.3z
	 M229.1,355.9c43.4,12.4,70.3,24.8,121.8,9.9c16.7-4.8,35.4-15.9,45.1-27.6c12.3-14.8,16.7-25.8,20.3-49.1
	c4.4,7.8,3.3,15.5,0.8,25.5c-10,38.9-8.2,53.9-14.9,74c-25.5,76.8-91.7,90.1-142.1,48c-29.9-25-35.9-58.8-45.8-70.7
	c-4.6,4.9-10.7,10.8-15.4,14.2c0.1-18.7,23.5-43.2,43.6-33.8L229.1,355.9z M120.1,427.1c-23.7-4.8-26.2-17-27.2-41.4
	c-11.9,5-8.7,5.7-20.8,14.5l-3.7,2.5c5.7-31.8,56.7-42.8,69-19.7c-15.2-1-18.1-4.4-36.1-0.7c-0.1,9.7,0,16.4,4.6,24.8
	C111.6,417.3,113,411,120.1,427.1z M323,472.9l31-10.4C348.9,475.7,334.4,484.3,323,472.9z"/>
<path class="st5" d="M365.2,735.6l-9.1,15c-2.8,5.4-2.5,6.8-5.8,12.9l-29.2,52.8c-6.8,13.4-5.4,15.7-17.3,23.8l-20.2,98.1
	c8.2,8.4,17.1,15.4,25.6,22.1c17.9-9.2,26.2-26.7,46.1-34.1v38.5c15.4,8.4,38.1,15.1,57,18.3c9-18.2,2,3.2,18.3-33.8
	c12.7-28.8,14.5-24.3,24.8-38.5c8.9-12.4,0.6-14.7,9.6-28.7l27.9-41.3c9.8-16.2,11.1-29.5,19.4-41.2l27.8-47.4
	c8.7-16.4,14.6-17.2,17.6-32.2l-18.4-1.6C500.8,714.9,409.7,731.5,365.2,735.6"/>
<path class="st5" d="M164.8,18.5c16.7,9.7,33.5,24.1,39.9,42.9c-52.1-1.1-86.3-22.7-155.5,6.7C46.4,80.9,65,70.5,34.9,84.9
	c-12.5,6-18.3,12.2-15.4,29.4C26.1,103,33.1,92.8,43.1,87c-21.4,42.9-40.2,67.4-30.4,132.1C19.2,262,42.8,310,65.2,333.9
	c-7.3-60.7-3.8-140.2,48.6-179.7c13.2-10-6,5.3,3.7-2.9c3.3-2.8,2.9-2.5,5.4-5.2c-4.3-2.6-7.3-4.4-13.4-8.3l-12.9-10.4
	c38.4,3.2,49.2,33,65.8,43.9c2-8.3,2.6-9.5,8.7-16.9c4.6-5.6,8.9-9.1,14.8-13.7c10.6-8.3,20.4-16.3,32.5-24.4
	c21.1-14.3,55.1-26.6,71.8-39c-5.6-10.6-10.8-15-12.8-28.6c20.7,7,11.7,17.2,25.4,26l8.5-4.2c-10.2-16.4-35-37.8-56-46.7
	C229.8,13,194.4,11.2,164.8,18.5"/>
<path class="st6" d="M412.2,982.9l5.7,3.3c26.7-4.6,45.6,1.2,77-8.1c22.9-6.8,46.9-23.3,61-26.5c4.7-8.3,6.8-8.3,15-11.5
	c-2.9-58.7-0.9-117.2,2.5-175.9c1.5-25.1,6.7-46.2-4-50.3c-9.5-0.4-24.1-0.7-30.2,4.3l18.4,1.6c-3,15-9,15.8-17.6,32.2l-27.8,47.4
	c-8.4,11.7-9.7,25.1-19.4,41.2l-27.9,41.3c-9,14.1-0.6,16.4-9.6,28.7c-10.3,14.3-12.1,9.7-24.8,38.5
	C414.1,986.2,421.2,964.7,412.2,982.9"/>
<path d="M113.9,890.1c-13.8-3.6-24.1-3.3-36.8,3.1c-5.9,2.9-11.4,6.4-17.4,9.3c-7.9,3.8-15.7,6.4-24.4,7.7c-4.7,0.7-9.1-2.3-10.1-7
	c-9.1-41.9-3.9-86.2,11.8-126c11.5-29.2,32.3-63.6,58.9-81.4c2.4-1.6,5.1-2,7.9-1c2.7,0.9,4.7,2.9,5.6,5.6
	c5.6,16.8,12.7,32.7,22.7,47.4c6.8,10,14.7,18.7,21.8,28.3c2.1,2.9,4.1,5.9,6,9c1.5,2.4,1.7,5.2,0.6,7.8
	c-6.1,15.6-13.1,30.9-19.6,46.4c-3.3,7.9-6.6,15.9-9.6,23.9c-2.5,6.6-4.8,13.4-6.6,20.2c-0.6,2.4-2,4.3-4.1,5.5
	C118.6,890.4,116.3,890.7,113.9,890.1"/>
<path class="st0" d="M34,901.4c34-5,40.9-30.5,82.1-20c6.4-25.3,27.1-68.5,36-91.6c-13.3-22.4-33.5-33.9-51.2-86.4
	C60.6,730.3,15.5,816.4,34,901.4"/>
<path class="st5" d="M327.4,78.5c-19.4-0.1-79.7,31.2-95.9,41.3c-33.1,20.6-55.9,36.5-76.3,63.9c56.6,0.9,151.1-51,191.9-73
	c12.6-6.3,19.1-12,29.6-19.6c12.2-8.8,15.2-10.9,19.1-30.3c0,0-6.5-4.1-17.3-0.6C362.1,66.6,340.9,66.8,327.4,78.5"/>
<path class="st2" d="M229.1,355.9l13.3-9.6c-20.1-9.4-43.5,15.1-43.6,33.8c4.7-3.4,10.8-9.3,15.4-14.2c9.8,11.8,15.8,45.6,45.8,70.7
	c50.4,42.1,116.6,28.8,142.1-48c6.7-20.2,4.9-35.1,14.9-74c2.5-9.9,3.6-17.7-0.8-25.5c-3.5,23.3-8,34.2-20.3,49.1
	c-9.7,11.7-28.3,22.8-45.1,27.6C299.4,380.7,272.5,368.3,229.1,355.9 M375.6,417.8c-14.2-27.8-29.9-23.7-50.6-5.6
	c-16.1-3.6-18-9.8-37.9-7.2c-19.6,2.6-18.6,10.1-32.1,14.2c-9.6-15.6-29.9-34.3-34.3-59.4c9.4-0.3,8.8,1.7,20.1,7.6
	c49.8,26.2,139.6,15.8,162.1-22.8C403.9,363.7,390.4,403.5,375.6,417.8z M295.9,445.5c-12.8-0.8-25.6-10-33.3-16.9
	c11.2-17.7,37.3-18.5,48.1-8.7c10.9,1,14.6,4.3,20.6,11.2c2.9-4.8-0.6-5.1,1.9-11.6c0.4-1.2-0.8-4.7,9.5-8.2
	c14.9-5,21.8,1.1,27.7,10.9C359.5,451.9,325.7,452.2,295.9,445.5z"/>
<path class="st4" d="M284.9,885.1c-3.1,21.3-11.5,38.5-11.7,60.7c16.5,9.5,23.5,21.7,34.4,25.5l27.1-14.3c7.9-4.1,7.1,9.8,17.5,17.3
	l32.1,12.3c1,0.3,4.1,1.1,5.1,1.4c15.2,4,10.2-3.7,15.9,7.7l12.5-9.5l-5.7-3.3c-18.9-3.1-41.6-9.9-57-18.3v-38.5
	c-19.8,7.4-28.1,24.9-46.1,34.1c-8.4-6.7-17.4-13.7-25.6-22.1l20.2-98.1c2.6-39.1-2.1-64.3-1.9-98.5l-15.3,3.6l9.2,2
	C300.3,782,298.1,858.1,284.9,885.1"/>
<path class="st3" d="M375.6,417.8c14.8-14.3,28.3-54,27.2-73.2c-22.5,38.5-112.3,48.9-162.1,22.8c-11.2-5.9-10.7-7.9-20.1-7.6
	c4.4,25,24.8,43.7,34.3,59.4c13.6-4,12.6-11.6,32.1-14.2c19.9-2.7,21.8,3.6,37.9,7.2C345.8,394.1,361.5,390,375.6,417.8"/>
<path class="st1" d="M131.5,671.9l-21.1,0.8c8,30.3-1,50,38.1,93.6c21.5,24,34.9,22,53.5-2.3c-3.7-11.1,1.3-1.1-7.4-11.9
	c-10.7-13.4-18.5-19.7-29.3-37.5c-11-18.1-13.4-29.1-15.4-51.5c-14.5,7.8-2.4-0.8-11.4,0.7C126.4,665.9,138.2,661.2,131.5,671.9"/>
<path class="st5" d="M85,352.7l-0.5-7.6c-9.5-51.1,14.4-98.7,43-136.2l27.8-37.2c-14.1-6.9-15.6-12.3-27.3-20.4
	C79.8,179.1,61.8,275,75.3,349.6C80.9,353.3,76.7,351.4,85,352.7"/>
<path class="st5" d="M256.5,306.3c14.3,1.9,25.1-11.6,27.3-23.4c2.9-15.7-2.5-22.3-9.3-39c-12.1-9.7-33.9-33.2-62.1-19.6
	c-20.4,9.8-26.2,35.4-16.9,62.8c3.3-5.4,6-36.9,36.1-28.1c19.7,5.8,18.4,35.7,6.1,44.6"/>
<path class="st7" d="M84.4,345.2l0.5,7.6l45.3,1.8c8.3-22.9,13-31,7.1-60.4c-4.4-22.1-6.4-38.8-21.3-48.6
	C88.7,270.4,91.1,336.6,84.4,345.2"/>
<path class="st2" d="M256.5,306.3l-18.8-2.7c12.3-8.9,13.7-38.9-6.1-44.6c-30.1-8.8-32.8,22.8-36.1,28.1c-9.3-27.5-3.5-53,16.9-62.8
	c28.2-13.6,50.1,9.8,62.1,19.6c3.8-9.5-40.9-54.2-76-20.8c-12,11.4-20.4,24.4-16.9,47.4c3.4,22.7,15.9,28.4,28,39.4
	c-9.2,9.3-7.6,1.1-11.4,13.8c8.1-2.1,17.7-5.8,26.5-7.9c6.7-1.6,10.8-1.5,15.8-2.2C256.1,311.2,252.8,310.7,256.5,306.3
	 M219.7,285.3c-9.3-1.4-7.8-0.6-10.6-8.6C212.2,266.9,228.8,268.8,219.7,285.3z"/>
<path class="st2" d="M360.5,235.5L341,238c9.9-27.5-7.1-42.3-25.6-34.5c-9,3.8-0.7,0.9-8.1,4.7c-2.5,1.3-1.8,1.6-6.7,2.6
	c-5.5-35.9-0.1-32.8,23.5-43.4c-45.2-15.2-49.6,61.4,0.1,81.5l-12.6,17.7c9.7-4.9,24.2-19.3,36.1-21.9c19.9-4.3,33.5,8.8,35.1,25.5
	c3.9,40.2-41.1,42.9-76.9,45.3c36.6,18,101.9-8.9,84.7-56.9C385.6,244.6,376.4,238.8,360.5,235.5 M310.8,219.7
	c5.2-10.3,4.6-8.9,13.4-3C321.4,229.6,317.3,230.5,310.8,219.7z"/>
<path class="st6" d="M301.9,741.5c-0.2,34.2,4.5,59.4,1.9,98.5c11.9-8.1,10.5-10.4,17.3-23.8l29.2-52.8c3.3-6.2,3-7.5,5.8-12.9
	l9.1-15"/>
<path class="st0" d="M294.2,498.2c2.2,4,11.8,21.8,11.9,21.9c25.5-0.6,38.7-10.8,61.6-1.1c17.3,7.3,29.4,22.5,49.6,10.9
	c-1.2-3.4-22-48.7-22.6-49.4C363.6,499.1,335.5,500.2,294.2,498.2"/>
<path class="st8" d="M310.8,419.9c-16.6-0.9-25-2.2-33.3,8.7c6.4,8.7,4.8,2.9,14.4,11.7l4,5.2c29.8,6.7,63.6,6.4,74.5-23.2
	c-6-9.8-12.8-15.9-27.7-10.9c-10.3,3.5-9.1,7-9.5,8.2c-2.5,6.5,1.1,6.8-1.9,11.6C325.4,424.2,321.7,420.9,310.8,419.9"/>
<path class="st5" d="M360.5,235.5c1.9-20.3,2.9-23.7-5.9-42.2c-4.3-9-5.7-10.7-12.6-15.7c-6.2-4.5-9.6-7.8-17.9-10.1
	c-23.7,10.6-29,7.5-23.5,43.4c4.8-1,4.1-1.3,6.7-2.6c7.4-3.8-1-0.9,8.1-4.7c18.5-7.8,35.5,7,25.6,34.5"/>
<path class="st1" d="M273.4,533.1c-5.3,21.3-8.7,10.9-10.1,32.6c61.3,5.3,70.9,3.1,67.9-38C307,533.1,297,530.7,273.4,533.1"/>
<path class="st4" d="M555.9,951.6c21.1-6.3,18.7-23.9,19.9-48.4c1.1-21.1,2.2-41.8,3.5-62.9c2.6-42.5,3.9-86.8,7.7-129.2l-17.6,2.8
	c10.7,4.2,5.5,25.2,4,50.3c-3.4,58.7-5.4,117.2-2.5,175.9C562.7,943.3,560.6,943.3,555.9,951.6"/>
<path class="st1" d="M568.1,622.9l3.2,8.7c8.1-17.9-2.1,4.6,18.5-14.2c5.3-4.8,5.1-4.7,11.1-8.1c3.3-1.9,3.2-1.4,6.2-3.3
	c11.2-7,10.4-4.6,6.6-12.2c-5-10-11.8,3.2-20.1-17.9c-1.5-3.8,1.8-1.2-2.2-5.8l-27.1-0.8c-1.1,24.3,9.9,27.8,10.6,40.4
	C576.1,630.3,579.1,619.6,568.1,622.9"/>
<path class="st5" d="M97.8,43.4c41.5-0.6,59.6,1.3,96.4,10.5C170.7,30.1,129.4,1.8,97.8,43.4"/>
<path class="st5" d="M565.9,557.3c19.5-2.7,4,0.6,9-5.3c-8.6-7.1-12-13.8-18.9-22.2c-16-19.5-44.4-39.8-72.5-38
	c-17.3,1.1-15.7,6.3-15.8,6.4l6.8,9.9L478,530l-47.4-17.5l-1.8,5.3l5.3,11.8l2.7,48.2c-11.7-3.2-4.4,0.2-13.3-6.8l-11.7-8.1
	L400,550.5c-10.7-8-37-26.2-46.9-28.5l-6.7,74.6l-10.5,0.1c-3.8-7.3-3.4-6.8-12.5-9.1c-23.3-22.5-73.5-6.9-99.2,5.9
	c-15.6,7.7-25.4,14.9-38.1,25.4c-27.7,22.8-47.5,21.7-12.5,91.3c9.2,18.4,25.2,39,40.9,45l1.8-5.7c23.2-7,33.2-29.1,73.9-29.5
	c-3.5-53.3-8.9-58.3-26.7-99.8c12.3,3.4,22.8,25.2,27.8,39c9.5,26,6.3,42.4,3.1,53.2c-3.9,12.9,6.6,22.3,8,43l131.2-20.6
	c48.5-5.8,94.8,9.2,142.4,3.4L571.7,632l-3.2-8.7c-5.1-30.2-20.9-62.6-36.1-79.5c8.1,3.2,10.6,8.2,17.6,15c0.5,0.5,1.2,1.2,1.8,1.7
	l3.8,3.4c0.5,0.4,1.3,1.2,2,1.7"/>
<path class="st9" d="M273.4,533.1c-7-1.7-7.9,0.9-12.1,11.8c-3.4,8.7-5.6,16.3-8.5,24.6c33.2,0.3,38.7-2.6,65.1,6.2
	c9.4,3.2,9.9,1.4,19.9,2.1l4.7-44.8c-5.1-4.5,1.5-2.8-11.2-5.5c3,41.1-6.6,43.3-67.9,38C264.8,544,268.2,554.3,273.4,533.1"/>
<path class="st2" d="M120.1,427.1c-7.1-16.1-8.5-9.8-14.1-20c-4.6-8.4-4.7-15.1-4.6-24.8c18.1-3.8,20.9-0.3,36.1,0.7
	c-12.3-23.1-63.3-12.1-69,19.7l3.7-2.5c12.1-8.8,8.8-9.5,20.8-14.5C93.9,410.1,96.5,422.3,120.1,427.1"/>
<path class="st9" d="M428.6,517.7l1.8-5.3c-1.9-9-0.4-1.2,2.2-4.8l31.4,7.8c7.9-8-4.9-17.1-8.2-20.3c0.4,19,1.4,6.2-4.2,10.9
	c-21.7-2.6-25.4-6.6-25.6-27.8c7.9,2.2,8.3,2.9,17.4,4.4c-8.8-12.8-27.1-12-38.5-8.5c3.8,18.3,3.4,32.2,14.7,31.7l4-0.4
	c0.5,0,1.7-0.2,2.6-0.1"/>
<path class="st1" d="M455.8,495.1l-12.5-12.5c-9-1.5-9.5-2.3-17.4-4.4c0.2,21.2,4,25.3,25.6,27.8C457.2,501.2,456.3,514,455.8,495.1
	"/>
<path class="st10" d="M295.9,445.5l-4-5.2c-9.6-8.7-8-3-14.4-11.7c8.3-10.9,16.7-9.6,33.3-8.7c-10.8-9.8-36.9-9-48.1,8.7
	C270.3,435.5,283.2,444.7,295.9,445.5"/>
<path class="st2" d="M166.9,228.6c2.4-5.2,3.5-12.1,6.7-17.9c4.8-8.8,7.1-6.4,13.2-17C170.4,195.8,152,211.8,166.9,228.6"/>
<path class="st9" d="M410.7,543.3c2,5.6-0.4,14,15.5,16.3c5.3-8.5,3-12.4,0.4-19.9C418.6,539.9,416.5,539.8,410.7,543.3"/>
<path class="st2" d="M323,472.9c11.3,11.4,25.9,2.8,31-10.4"/>
<path class="st5" d="M209.1,276.7c2.8,8.1,1.2,7.2,10.6,8.6C228.8,268.8,212.2,266.9,209.1,276.7"/>
<path class="st5" d="M324.2,216.7c-8.9-5.9-8.2-7.3-13.4,3C317.3,230.5,321.4,229.6,324.2,216.7"/>
<path class="st11" d="M768.1,693.7l14.3,27.9c3.7-21.8-0.9-42.6-12.2-54.7c-6.4-6.9-38.8-25-51.5-12.2c16.5,2,23-2,35.7,8.7
	l15.6,23.2C772.7,700.5,772.2,689.3,768.1,693.7"/>
<path class="st5" d="M768.1,693.7c4-4.4,4.6,6.8,1.9-7l-15.6-23.2c-12.7-10.7-19.2-6.7-35.7-8.7l-14.9,1.2l18.5,8.2
	C742.6,671,753,678.6,768.1,693.7"/>
<path d="M618.5,736.9c-35.2-1.3-56.4-20.7-55.6-56.8c0.2-9.3,2.6-19.5,11.7-24c12.5-6.2,29.3,3.6,40,9.9c4.3,2.6,8.6,5.2,13,7.7
	c2.8,1.6,6.2,3.6,9.3,4.6c2.4,0.8,4.2,2.3,5.3,4.6s1.2,4.6,0.3,7L627.3,731C625.9,734.8,622.4,737.1,618.5,736.9"/>
<path class="st6" d="M585.4,697.6c1.6,5.8,8.5,12.1,3.9,1.3C588.4,696.6,584.5,694.2,585.4,697.6"/>
<path class="st5" d="M630.7,718.1l3.3-31.2c-18.7-6.2-61.2-45.9-62.1-6.5c-0.7,28.9,14.3,44,40.1,47.1
	C614.2,727.7,628.3,718,630.7,718.1"/>
<path class="st2" d="M50,972.8l2.8,11.1c0.4-0.7,0.6-2.5,1.2-2.2c0.6,0.3,0.9-1.8,1.2-2.3c0.3-0.7,1.8-4,2.2-5
	c12-29.7,25.5-44.9,58.6-68.8c-3-0.4-3.2-2.6-11.5,0.7C75.1,917.6,59,947.1,50,972.8"/>
<path class="st2" d="M131.1,1040c5.5-7,27.7-49.6,28.2-61.1C138.7,992.9,127.4,1021.8,131.1,1040"/>
<g id="XMLID_1_">
	<g>
		<path class="st5" d="M3553,739.3v787.1H190.2V739.3h9.4H3553z M3534.2,1505.4V760.2H208.9v745.2H3534.2z"/>
		<polygon class="st5" points="3486.9,867.5 3486.9,919.2 3368.6,919.2 3368.6,1398.2 3314.6,1398.2 3314.6,919.2 3196.4,919.2 
			3196.4,867.5 		"/>
		<path class="st5" d="M2983.5,1151.3l191.1,246.9h-65.2l-191.1-246.9h-30.6v246.9h-53.2V867.5h106c59,0,99.1,2.5,120,7.3
			c31.7,7.1,57.3,22.5,77,46.3c19.8,23.7,29.7,52.9,29.7,87.5c0,28.8-6.8,54.2-20.4,76c-13.6,21.9-33,38.4-58.4,49.6
			C3063.1,1145.4,3028.1,1151.1,2983.5,1151.3z M3098.2,1057.9c9.5-14.8,14.3-31.3,14.3-49.6c0-17.7-4.8-34-14.5-48.5
			c-9.6-14.5-22.3-24.9-38.1-31.2c-15.6-6.3-41.8-9.4-78.2-9.4h-94v180.4l91.7,0.7c35.6,0,61.9-3.3,78.9-10.1
			C3075.3,1083.4,3088.6,1072.7,3098.2,1057.9z"/>
		<path class="st5" d="M2340,867.5l476.1,530.8h-57l-158-174.5h-230l-7.3,174.5h-59.1l22.2-530.8H2340z M2555.2,1172l-174-193.2
			L2373,1172H2555.2z"/>
		<polygon class="st5" points="2259.4,867.5 2241.3,1398.2 2229.5,1398.2 1788.5,867.5 1846.3,867.5 2187.6,1278.3 2201.6,867.5 		
			"/>
		<path class="st5" d="M1761.2,867.5v320.3c0,47.4-4.7,85.8-13.9,114.9c-9.2,29.2-27.8,54.7-55.6,76.3
			c-27.8,21.7-61.5,32.5-101,32.5c-42.9,0-79.6-10.2-110.1-30.7c-30.7-20.5-51.1-47.4-61.5-81.2c-6.5-20.7-9.7-57.9-9.7-111.9
			l-0.1-320.2h53.2V1188c0,38,0.7,61.7,2.2,71.1c2.6,20.9,8.8,38.4,18.4,52.5c9.6,14,24.4,25.9,44.4,35.4s40,14.3,60.4,14.3
			c17.5,0,34.4-3.7,50.5-11.2c16-7.4,29.6-17.7,40.4-31c10.8-13.2,18.7-29.2,23.8-47.9c3.6-13.6,5.4-41.2,5.4-83V867.5H1761.2z"/>
		<path class="st5" d="M1389.5,1132.7c0,77.7-27,143.7-80.9,197.7c-54.1,54.1-119.9,81.2-197.6,81.2c-78.6,0-145-27-199.1-80.8
			c-54.1-53.8-81.2-119-81.2-195.5c0-51,12.3-98.2,37-141.8c24.6-43.5,58.3-77.6,100.9-102.3c42.4-24.7,88.4-37,138-37
			c80.3,0,147.6,26.9,201.7,80.5C1362.4,988.3,1389.5,1054.3,1389.5,1132.7z M1305.3,1247.9c19.6-34.6,29.4-73.1,29.4-115.4
			c0-42.1-9.9-80.2-29.4-114.2c-19.6-34-47.3-61.2-82.9-81.7s-73.4-30.7-113.5-30.7c-39.2,0-76.4,10.2-111.6,30.7
			c-35.1,20.5-62.6,47.9-82.4,82.5c-19.7,34.7-29.6,73.3-29.6,115.9c0,63,21.8,116.2,65.5,159.5c43.7,43.5,96.5,65.2,158.1,65.2
			c41.3,0,79.3-10,114.3-29.9C1258.3,1309.8,1285.7,1282.5,1305.3,1247.9z"/>
		<polygon class="st5" points="900.8,1346.5 900.8,1398.2 642.8,1398.2 642.8,867.5 696.1,867.5 696.1,1346.5 		"/>
	</g>
	<g>
	</g>
</g>
<path d="M724.6,800c-1,0.1-1.9,0.2-2.6,0.3c-4.7,0.6-9.3,1.3-14,1.8c-9.9,1-23.7,1.8-31.6-5.5c-3.2-2.9-5.1-5.9-6.2-9.1
	c-12.3,0.4-24.7-2.4-33-12.4c-10.5-12.7-9.9-31.7-7-48l-2.4-0.5c-4.8-1,1.9-3.8,2.7-8.6c1.8-10,2.2-19,7-28.6c0.5-0.9-7-5.9-6.5-6.8
	c2.5-4.3,5.6-8.2,9.5-11.3c7.8-6.2,18.3-9.4,27.7-12.5c18.6-10.1,39.6-17.4,61-16.5c17.4,0.7,33.4,6.8,46.4,18.5
	c24.6,22,32.5,57.8,26.7,89.4c-6,32.8-28.1,55.8-61.6,59.3c-1.4,0.1-2.6,0-4-0.5C732.2,807.3,727.5,804.2,724.6,800"/>
<path class="st5" d="M793.8,748.6c11.6-63.1-37.2-128-121.7-81.5c-26.1,8.8-44.4,8.5-51.6,48.8l20.5,4.2c-8.1,33.5-4.7,62.4,34.7,58
	c0.7-0.1,23.7-18.6,24.4-18.7c1.2-0.2-21.9,19.7-21.8,22.2c0,2.2,0.8,5.2,4.3,8.4c8.2,7.5,33.8,2,44.8,0.9
	c1.3-0.1,30.1-22.2,30.9-22.1c0,1.1-27.3,24.2-26.7,25.4c1.3,2.4,4.1,4.8,8.4,6.4C767.9,797.7,788.1,779.3,793.8,748.6"/>
<path d="M221.9,1050.8c4.7,0.5,9.5,0.8,14.2,1.4c13,1.5,32.9,4.2,39.5,17.3c5.9,11.7-1.8,24.2-9.2,33.1c-0.8,1-1.6,1.6-2.7,2.2
	c-21.9,11.4-64.8,2.5-87.5-3.5c-21.5-5.7-59.4-18.3-76.1-33.2c-14.6-13-24.3-26-33.7-43c-4.9-9-9.5-17.8-14.6-26.4
	c-0.9,0.7-2.1,1.2-3.4,1.5c-2.1,0.5-4.3,0.2-6.2-0.8c-1.7,0.1-3.5-0.3-5.2-1.3c-3.6-2.1-4.6-5.4-4.5-9.2
	c-6.5-6.6-14.2-11.7-19.7-19.2c-6.6-9.1-7.8-19.3-6.1-30.2c3.2-20.6,13.1-36.8,27.8-51.4c11.4-13.6,27.2-26,45.1-28.9
	c8.6-1.4,17.7-1.5,25.5,2.7c2.4,1.3,4.4,2.8,6.5,4.6c0.5,0.4,1.3,1.2,1.9,1.6c4.7-1.1,18.5-12.8,21.5-15.4
	c12-10.3,11.7-27.5,18.4-40.7c1.5-3,4.4-4.8,7.8-4.9c32.6-0.7,40,42.8,35,67.4c-1.1,5.4-2.7,10.5-4.7,15.7c-1,2.7-2.4,5.9-3,8.8
	c-0.8,4.3,1.1,9.3,3.4,13.7c2.5-1.4,5.6-3.6,6.8-4.5c6.3-4.7,12.3-9.7,18.7-14.3c9.9-7,21.3-13.3,33.7-13.5
	c22.2-0.3,35.8,19.1,44.2,37.2c1.6,3.5,0.9,7.5-1.9,10.2c-16.2,15.9-32.8,31.6-49.8,46.7c6-0.4,12-0.9,18.1-1.2
	c11.1-0.5,24.7-0.6,33.6,7.1c9.6,8.3,10.1,21.9,8.8,33.6c-0.3,3-2,5.4-4.6,6.9c-6.4,3.4-13.5,6.2-20.2,8.8c-8.3,3.2-16.6,6.1-25,9.1
	C249.4,1040.4,233.8,1045.7,221.9,1050.8"/>
<path class="st5" d="M57.4,974.4c-0.4,1-1.9,4.4-2.2,5c-0.2,0.5-0.5,2.6-1.2,2.3c-0.6-0.3-0.8,1.4-1.2,2.2L50,972.8
	c8.9-25.7,25-55.2,54.4-66.6c8.3-3.2,8.6-1.1,11.5-0.7C82.9,929.5,69.4,944.7,57.4,974.4 M52.9,983.9c20.2,29.2,23.1,50.5,53.1,77.4
	c23.7,21.2,122.8,51.5,153.5,35.5c39.2-46.8-59.6-30.3-59.1-43.3c7.1-11.3,72.1-28.2,94.8-40.5c5-43.8-28.6-28-76.8-28.5
	c14.9-12.6,37.3-32.3,68.7-63.1c-34.7-74.8-80.7,5.7-99.8,1.4c-15.4-25.7-4.7-26.9,0-50c3.6-17.6,0-57.2-26-56.7
	c-6,11.6-6.1,31-20.6,43.4c-44.1,37.6-22.2,2.3-59.8,8.4C64.7,870.6,50.5,882.6,41,894c-15.4,15.2-23,30-25.5,46.7
	c-3.9,25.1,12.8,29.7,25.8,44.4c0.7,6-1.2,6.3,3.3,3.5c3.7,5.8-0.3,1,5.8-2L52.9,983.9z M131.1,1040c-3.7-18.2,7.6-47.1,28.2-61.1
	C158.8,990.3,136.6,1033,131.1,1040z"/>
</svg>
