<?xml version="1.0" encoding="utf-8"?>
<!-- Generator: Adobe Illustrator 22.0.0, SVG Export Plug-In . SVG Version: 6.00 Build 0)  -->
<svg version="1.1" id="Layer_1" xmlns="http://www.w3.org/2000/svg" xmlns:xlink="http://www.w3.org/1999/xlink" x="0px" y="0px"
	 viewBox="0 0 2941.7 789.6" style="enable-background:new 0 0 2941.7 789.6;" xml:space="preserve">
<style type="text/css">
	.st0{fill:#FFFFFF;}
</style>
<g id="XMLID_1_">
	<g>
		<path class="st0" d="M2940.3,0v787.1H5.6V0h8.2H2940.3z M2923.9,766.1V20.9H21.9v745.2H2923.9z"/>
		<polygon class="st0" points="2890.8,128.2 2890.8,179.9 2772.5,179.9 2772.5,658.9 2718.5,658.9 2718.5,179.9 2600.3,179.9 
			2600.3,128.2 		"/>
		<path class="st0" d="M2387.4,412l191.1,246.9h-65.2L2322.2,412h-30.6v246.9h-53.2V128.2h106c59,0,99.1,2.5,120,7.3
			c31.7,7.1,57.3,22.5,77,46.3c19.8,23.7,29.7,52.9,29.7,87.5c0,28.8-6.8,54.2-20.4,76c-13.6,21.9-33,38.4-58.4,49.6
			C2467,406.1,2432,411.8,2387.4,412z M2502.1,318.6c9.5-14.8,14.3-31.3,14.3-49.6c0-17.7-4.8-34-14.5-48.5
			c-9.6-14.5-22.3-24.9-38.1-31.2c-15.6-6.3-41.8-9.4-78.2-9.4h-94v180.4l91.7,0.7c35.6,0,61.9-3.3,78.9-10.1
			C2479.2,344.1,2492.5,333.4,2502.1,318.6z"/>
		<path class="st0" d="M1743.9,128.2L2220,659h-57l-158-174.5h-230l-7.3,174.5h-59.1l22.2-530.8H1743.9z M1959.1,432.7l-174-193.2
			l-8.2,193.2H1959.1z"/>
		<polygon class="st0" points="1663.3,128.2 1645.2,658.9 1633.4,658.9 1192.4,128.2 1250.2,128.2 1591.5,539 1605.5,128.2 		"/>
		<path class="st0" d="M1165.1,128.2v320.3c0,47.4-4.7,85.8-13.9,114.9c-9.2,29.2-27.8,54.7-55.6,76.3
			c-27.8,21.7-61.5,32.5-101,32.5c-42.9,0-79.6-10.2-110.1-30.7c-30.7-20.5-51.1-47.4-61.5-81.2c-6.5-20.7-9.7-57.9-9.7-111.9
			l-0.1-320.2h53.2v320.5c0,38,0.7,61.7,2.2,71.1c2.6,20.9,8.8,38.4,18.4,52.5c9.6,14,24.4,25.9,44.4,35.4s40,14.3,60.4,14.3
			c17.5,0,34.4-3.7,50.5-11.2c16-7.4,29.6-17.7,40.4-31c10.8-13.2,18.7-29.2,23.8-47.9c3.6-13.6,5.4-41.2,5.4-83V128.2H1165.1z"/>
		<path class="st0" d="M793.4,393.4c0,77.7-27,143.7-80.9,197.7c-54.1,54.1-119.9,81.2-197.6,81.2c-78.6,0-145-27-199.1-80.8
			s-81.2-119-81.2-195.5c0-51,12.3-98.2,37-141.8c24.6-43.5,58.3-77.6,100.9-102.3c42.4-24.7,88.4-37,138-37
			c80.3,0,147.6,26.9,201.7,80.5C766.3,249,793.4,315,793.4,393.4z M709.2,508.6c19.6-34.6,29.4-73.1,29.4-115.4
			c0-42.1-9.9-80.2-29.4-114.2c-19.6-34-47.3-61.2-82.9-81.7s-73.4-30.7-113.5-30.7c-39.2,0-76.4,10.2-111.6,30.7
			c-35.1,20.5-62.6,47.9-82.4,82.5c-19.7,34.7-29.6,73.3-29.6,115.9c0,63,21.8,116.2,65.5,159.5c43.7,43.5,96.5,65.2,158.1,65.2
			c41.3,0,79.3-10,114.3-29.9C662.2,570.5,689.6,543.2,709.2,508.6z"/>
		<polygon class="st0" points="304.7,607.2 304.7,658.9 46.7,658.9 46.7,128.2 100,128.2 100,607.2 		"/>
	</g>
	<g>
	</g>
</g>
</svg>
