<?xml version="1.0" encoding="utf-8"?>
<!-- Generator: Adobe Illustrator 22.0.0, SVG Export Plug-In . SVG Version: 6.00 Build 0)  -->
<svg version="1.1" id="Layer_1" xmlns="http://www.w3.org/2000/svg" xmlns:xlink="http://www.w3.org/1999/xlink" x="0px" y="0px"
	 viewBox="0 0 470 470" style="enable-background:new 0 0 470 470;" xml:space="preserve">
<style type="text/css">
	.st0{fill:#FFFFFF;}
</style>
<g>
	<g id="XMLID_1_">
		<g>
			<path class="st0" d="M429.6,418.4c1.1,2.7,0.6,5.7-1.3,7.9s-4.9,3-7.7,2.2L360,410.9l-30.4,55.2c-1.3,2.4-3.9,3.9-6.6,3.9
				c-0.1,0-0.3,0-0.4,0c-2.9-0.2-5.4-2-6.5-4.6l-67.8-163.7c-4.4,0.4-8.8,0.6-13.3,0.6c-43.5,0-82.8-18.5-110.4-48L60.2,409.7
				l51.3-14.9c3.4-1,7,0.5,8.6,3.6l25.8,46.8l52.2-125.9c1.6-3.8,6-5.6,9.8-4.1c3.8,1.6,5.7,6,4.1,9.8l-58.1,140.4
				c-1.1,2.7-3.6,4.5-6.5,4.6c-0.1,0-0.3,0-0.4,0c-2.7,0-5.3-1.5-6.6-3.9L110,410.9l-60.5,17.5c-2.8,0.8-5.8-0.1-7.7-2.2
				s-2.4-5.2-1.3-7.9l73.4-177.1c-18.8-25.2-29.9-56.4-29.9-90.1C83.9,67.8,151.7,0,235,0s151.1,67.8,151.1,151.1
				c0,73.5-52.8,134.9-122.4,148.4L324,445.2l25.8-46.8c1.7-3.1,5.3-4.6,8.7-3.6l51.3,14.9l-56.3-135.8c-1.6-3.8,0.2-8.2,4.1-9.8
				c3.8-1.6,8.2,0.2,9.8,4.1L429.6,418.4z M371.1,151.1C371.1,76.1,310.1,15,235,15S98.9,76.1,98.9,151.1S159.9,287.2,235,287.2
				S371.1,226.2,371.1,151.1z"/>
			<path class="st0" d="M355.1,135.1c0.5,4.1-2.3,7.9-6.5,8.4c-4.1,0.6-7.9-2.3-8.4-6.4C333.2,84.6,288,45,235,45
				c-58.5,0-106.1,47.6-106.1,106.1c0,58.5,47.6,106.1,106.1,106.1c53,0,98.2-39.6,105.2-92.1c0.5-4.1,4.3-7,8.4-6.5
				c4.1,0.6,7,4.3,6.5,8.4C347.1,227,295.5,272.2,235,272.2c-66.8,0-121.1-54.3-121.1-121.1C113.9,84.3,168.2,30,235,30
				C295.5,30,347.1,75.2,355.1,135.1z"/>
			<path class="st0" d="M321.7,123c0.9,2.7,0.2,5.6-1.8,7.6L284,167.1l7.5,50.6c0.4,2.8-0.8,5.5-3,7.2c-1.3,0.9-2.9,1.4-4.4,1.4
				c-1.1,0-2.3-0.3-3.3-0.8L235,202.7l-45.8,22.8c-2.5,1.3-5.5,1-7.8-0.6c-2.3-1.6-3.4-4.4-3-7.2l7.5-50.6l-35.9-36.5
				c-2-2-2.6-4.9-1.8-7.6c0.9-2.7,3.1-4.6,5.9-5.1l50.5-8.5L228.4,64c1.3-2.5,3.8-4,6.6-4s5.4,1.5,6.6,4l23.6,45.4l50.5,8.5
				C318.5,118.3,320.8,120.3,321.7,123z M270.7,159.2l28.4-28.9l-39.9-6.7c-2.3-0.4-4.3-1.8-5.4-3.9L235,83.7l-18.7,35.9
				c-1.1,2.1-3.1,3.5-5.4,3.9l-40,6.7l28.4,28.9c1.7,1.7,2.4,4,2.1,6.3l-6,40.1l36.3-18.1c1.1-0.5,2.2-0.8,3.3-0.8s2.3,0.3,3.3,0.8
				l36.3,18.1l-6-40.1C268.3,163.2,269.1,160.9,270.7,159.2L270.7,159.2z"/>
		</g>
		<g>
		</g>
	</g>
</g>
</svg>
