<?xml version="1.0" encoding="utf-8"?>
<!-- Generator: Adobe Illustrator 22.0.0, SVG Export Plug-In . SVG Version: 6.00 Build 0)  -->
<svg version="1.1" id="Capa_1" xmlns="http://www.w3.org/2000/svg" xmlns:xlink="http://www.w3.org/1999/xlink" x="0px" y="0px"
	 viewBox="0 0 51.4 51.4" style="enable-background:new 0 0 51.4 51.4;" xml:space="preserve">
<style type="text/css">
	.st0{fill:#FFFFFF;}
</style>
<g>
	<g id="XMLID_1_">
		<g>
			<path class="st0" d="M51.4,21.4H40.9h-0.1c-0.7-9.6-6.2-9.1-14.8-9.1c-8.6-0.1-14.6-0.6-15.5,9.1H0.1C0.1,6.6,13,4.5,25.7,4.5
				S51.4,6.6,51.4,21.4z"/>
			<path class="st0" d="M40.9,22.6h10.5c0,3.6-2.4,3.4-5.3,3.4c-1.8,0-3.5,0.1-4.4-0.8c-0.4-0.3-0.6-0.8-0.8-1.4
				c-0.1-0.3-0.1-0.7-0.1-1.2H40.9z"/>
			<path class="st0" d="M31.2,32.6c0.8,0,1.5-0.6,1.5-1.5c0-0.8-0.7-1.5-1.5-1.5c-0.8,0-1.5,0.7-1.5,1.5
				C29.7,32,30.4,32.6,31.2,32.6z M31.2,27.6c0.8,0,1.5-0.7,1.5-1.5c0-0.8-0.7-1.5-1.5-1.5c-0.8,0-1.5,0.7-1.5,1.5
				C29.7,27,30.4,27.6,31.2,27.6z M20.6,36.2c0-0.8-0.7-1.5-1.5-1.5c-0.8,0-1.5,0.7-1.5,1.5c0,0.8,0.7,1.5,1.5,1.5
				C20,37.6,20.6,37,20.6,36.2z M19.2,32.6c0.8,0,1.5-0.6,1.5-1.5c0-0.8-0.7-1.5-1.5-1.5c-0.8,0-1.5,0.7-1.5,1.5
				C17.7,32,18.4,32.6,19.2,32.6z M19.2,27.6c0.8,0,1.5-0.7,1.5-1.5c0-0.8-0.7-1.5-1.5-1.5c-0.8,0-1.5,0.7-1.5,1.5
				C17.7,27,18.4,27.6,19.2,27.6z M25.2,27.6c0.8,0,1.5-0.7,1.5-1.5c0-0.8-0.7-1.5-1.5-1.5c-0.8,0-1.5,0.7-1.5,1.5
				C23.7,27,24.4,27.6,25.2,27.6z M26.6,36.2c0-0.8-0.7-1.5-1.5-1.5c-0.8,0-1.5,0.7-1.5,1.5c0,0.8,0.7,1.5,1.5,1.5
				C26,37.6,26.6,37,26.6,36.2z M26.6,31.2c0-0.8-0.7-1.5-1.5-1.5c-0.8,0-1.5,0.7-1.5,1.5c0,0.8,0.7,1.5,1.5,1.5
				C26,32.6,26.6,32,26.6,31.2z M31.2,34.7c-0.8,0-1.5,0.7-1.5,1.5c0,0.8,0.7,1.5,1.5,1.5c0.8,0,1.5-0.6,1.5-1.5
				C32.6,35.4,32,34.7,31.2,34.7z M46.7,36.4v9c0,0.8-0.7,1.5-1.5,1.5h-40c-0.8,0-1.5-0.7-1.5-1.5l0-9c0.2-1,4.5-7,7.8-11.2
				c1.3-1.7,2.5-3.1,3.2-3.8v-1.3v-1.5c0-0.7,0.8-0.7,1.7-0.7H18c1,0,1.7,0,1.7,0.7v1.3v1h11v-1v-1.3c0-0.7,0.8-0.7,1.7-0.7H34
				c1,0,1.7,0,1.7,0.7v1.5v1.3c0.8,0.8,2.1,2.5,3.6,4.4C42.6,30,46.5,35.5,46.7,36.4z"/>
			<path class="st0" d="M10.5,22.6L10.5,22.6c0.1,0.5,0,0.8-0.1,1.2c-0.1,0.6-0.3,1-0.5,1.3c-0.9,1.1-2.6,1.1-4.6,1.1
				c-2.9,0-5.3,0.2-5.3-3.6H10.5L10.5,22.6z"/>
		</g>
		<g>
		</g>
	</g>
</g>
</svg>
