<?xml version="1.0" encoding="utf-8"?>
<!-- Generator: Adobe Illustrator 22.0.0, SVG Export Plug-In . SVG Version: 6.00 Build 0)  -->
<svg version="1.1" id="Layer_1" xmlns="http://www.w3.org/2000/svg" xmlns:xlink="http://www.w3.org/1999/xlink" x="0px" y="0px"
	 viewBox="0 0 80 80" style="enable-background:new 0 0 80 80;" xml:space="preserve">
<style type="text/css">
	.st0{fill:#1034A6;}
</style>
<g id="XMLID_1_">
	<g>
		<path class="st0" d="M58.6,52c0.1-0.2,0.3-0.4,0.6-0.4c0.2-0.1,0.5,0,0.7,0.1c0.1,0.1,0.2,0.2,0.3,0.3c0.1,0.1,0.1,0.2,0.1,0.3
			c0,0.1,0,0.2,0,0.4c0,0.1-0.1,0.2-0.1,0.3l-3.9,6.2c-0.1,0.1-0.2,0.2-0.3,0.3c-0.1,0.1-0.2,0.1-0.3,0.2c-0.1,0-0.3,0-0.4,0
			c-0.1,0-0.2-0.1-0.3-0.1c-0.1-0.1-0.2-0.1-0.3-0.3c-0.1-0.1-0.1-0.2-0.1-0.3c0-0.1,0-0.2,0-0.4c0-0.1,0.1-0.2,0.1-0.3L58.6,52z"/>
		<path class="st0" d="M57.8,47.6c0,0.1-0.1,0.2-0.2,0.3l-7.1,10.2c-0.1,0.1-0.2,0.2-0.3,0.3c-0.1,0.1-0.2,0.1-0.4,0.1
			c-0.1,0-0.2,0-0.4,0c-0.1,0-0.2-0.1-0.3-0.1c-0.1-0.1-0.2-0.2-0.3-0.3c-0.1-0.1-0.1-0.2-0.1-0.3c0-0.1,0-0.2,0-0.4
			c0-0.1,0.1-0.2,0.1-0.3l7.1-10.2c0.1-0.1,0.2-0.2,0.3-0.3c0.1-0.1,0.2-0.1,0.3-0.1c0.1,0,0.3,0,0.4,0c0.1,0,0.2,0.1,0.3,0.1
			c0.1,0.1,0.2,0.2,0.3,0.3c0.1,0.1,0.1,0.2,0.1,0.3C57.9,47.4,57.9,47.5,57.8,47.6z"/>
		<path class="st0" d="M23.7,19.7c-0.1,0.1-0.1,0.2-0.3,0.3s-0.2,0.1-0.3,0.1c-0.1,0-0.3,0-0.4,0c-0.1,0-0.2-0.1-0.3-0.1
			c-0.1-0.1-0.2-0.1-0.3-0.3c-0.1-0.1-0.1-0.2-0.1-0.3c0-0.1,0-0.2,0-0.4c0-0.1,0.1-0.2,0.1-0.3l3.9-6.2c0.1-0.2,0.3-0.4,0.6-0.4
			c0.2-0.1,0.5,0,0.7,0.1c0.2,0.1,0.4,0.3,0.4,0.6c0.1,0.2,0,0.5-0.1,0.7L23.7,19.7z"/>
		<path class="st0" d="M25.1,8.5L18,18.7c-0.1,0.2-0.4,0.3-0.6,0.4c-0.3,0.1-0.5,0-0.7-0.1c-0.1-0.1-0.2-0.2-0.3-0.3
			c-0.1-0.1-0.1-0.2-0.1-0.4c0-0.1,0-0.2,0-0.4c0-0.1,0.1-0.2,0.1-0.3l7.1-10.2C23.8,7.2,24,7.1,24.2,7c0.3,0,0.5,0,0.7,0.2
			c0.2,0.1,0.4,0.4,0.4,0.6C25.3,8,25.3,8.3,25.1,8.5z"/>
		<path class="st0" d="M70.7,39.3H40.8l-0.3,31.1h30.3V39.3z M70.7,3.4H41.2l-0.4,34h29.9V3.4z M74.2,72.3H5.8v4.3h68.4V72.3z
			 M9.2,1.6h62.2c0.3,0,0.7,0.1,0.9,0.4c0.2,0.2,0.4,0.6,0.4,0.9v67.6h2.2c0.3,0,0.7,0.1,0.9,0.4c0.2,0.2,0.4,0.5,0.4,0.9v5.5
			c0,0.3-0.1,0.6-0.4,0.9c-0.2,0.2-0.6,0.4-0.9,0.4H5.2c-0.3,0-0.6-0.1-0.9-0.4c-0.2-0.2-0.4-0.6-0.4-0.9v-5.5
			c0-0.3,0.1-0.7,0.4-0.9c0.2-0.2,0.6-0.4,0.9-0.4h2.7V2.9C7.9,2.5,8,2.2,8.3,2C8.5,1.7,8.8,1.6,9.2,1.6z M9.8,37.4h29.2l0.4-34H9.8
			V37.4z M9.8,70.4h28.8l0.3-31.1H9.8V70.4z"/>
	</g>
	<g>
	</g>
</g>
</svg>
